PathFileType	4	(X/Y/Z)	s06c0201.trc
DataRate	CameraRate	NumFrames	NumMarkers	Units	OrigDataRate	OrigDataStartFrame	OrigNumFrames
200	200	7	49	mm	200	1500	2000
Frame#	Time	racr			lacr			c7			jug			rlel			rdr			llel			ldr			s2			lic			ric			lasi			rasi			rpsi			lpsi			rgt			lgt			rth1			rth2			rth3			rth4			rlfc			rmfc			rsh1			rsh2			rsh3			rsh4			rlmal			rmmal			rcal			rtoe			rmt5			lth1			lth2			lth4			lth3			llfc			lmfc			llmal			lcal			lmt5			lsh1			lsh2			lsh3			lsh4			ltoe			SBIKE			LBIKE			RBIKE			
		X1	Y1	Z1	X2	Y2	Z2	X3	Y3	Z3	X4	Y4	Z4	X5	Y5	Z5	X6	Y6	Z6	X7	Y7	Z7	X8	Y8	Z8	X9	Y9	Z9	X10	Y10	Z10	X11	Y11	Z11	X12	Y12	Z12	X13	Y13	Z13	X14	Y14	Z14	X15	Y15	Z15	X16	Y16	Z16	X17	Y17	Z17	X18	Y18	Z18	X19	Y19	Z19	X20	Y20	Z20	X21	Y21	Z21	X22	Y22	Z22	X23	Y23	Z23	X24	Y24	Z24	X25	Y25	Z25	X26	Y26	Z26	X27	Y27	Z27	X28	Y28	Z28	X29	Y29	Z29	X30	Y30	Z30	X31	Y31	Z31	X32	Y32	Z32	X33	Y33	Z33	X34	Y34	Z34	X35	Y35	Z35	X36	Y36	Z36	X37	Y37	Z37	X38	Y38	Z38	X39	Y39	Z39	X40	Y40	Z40	X41	Y41	Z41	X42	Y42	Z42	X43	Y43	Z43	X44	Y44	Z44	X45	Y45	Z45	X46	Y46	Z46	X47	Y47	Z47	X48	Y48	Z48	X49	Y49	Z49	
1500	7.5000	530.250699	1230.738789	-60.193132	562.046989	1199.839063	-373.254087	550.555738	1310.474040	-218.235548	506.220494	1140.612253	-205.598912	474.604990	996.638949	63.461708	644.400802	919.702593	-71.284835	465.343673	987.443872	-521.865418	648.913517	917.542169	-431.520288	-1.468317	1124.538745	-257.628681	172.689515	1097.893814	-409.372081	124.769640	1101.327931	-79.609468	191.633706	1050.006490	-366.843908	166.050282	1067.163359	-112.626958	29.526560	1168.776582	-229.124396	31.640164	1160.960199	-290.859339	100.176419	1017.191622	-56.182119	158.220657	1032.924483	-442.187199	191.258174	914.402737	-30.520436	259.843541	854.961486	-31.454795	288.494809	772.645166	-39.484036	289.520325	877.082381	-43.522571	329.170507	671.776667	-52.348916	330.578998	645.980899	-158.414343	301.497918	551.087272	-30.894172	308.336174	465.723383	-49.619335	272.726389	386.635916	-57.127113	332.832687	466.328846	-82.875876	250.031316	311.302008	-63.368400	286.360432	314.219771	-156.935809	187.033373	290.130135	-112.740113	455.470477	224.791809	-103.268709	354.170861	222.484127	-36.792632	225.439370	950.373153	-450.157149	306.964113	920.728263	-442.550354	326.267452	948.336911	-426.683622	364.489358	852.489318	-442.093043	404.866976	754.936963	-412.759121	401.729630	742.192689	-297.718298	103.247956	551.060956	-383.639226	40.069444	588.293034	-335.304514	115.941677	407.073859	-408.515537	328.423308	679.805376	-427.434184	270.481645	620.950429	-399.689662	188.948234	589.210338	-401.741799	286.941564	607.972611	-367.609366	171.066263	339.096870	-350.874259	-203.922821	867.672955	-221.905864	-50.211400	79.232269	-420.252396	-50.261563	79.414337	-22.891692	
1501	7.5050	529.910543	1231.228716	-60.594318	561.289231	1200.932759	-374.665991	550.544570	1311.078009	-219.460499	505.381104	1141.471926	-206.703858	474.620118	997.280974	63.930153	644.467314	920.018586	-70.697379	465.338093	987.769669	-522.797688	648.882608	917.934094	-431.968712	-1.160927	1124.509535	-255.867972	171.851646	1098.426638	-408.966252	125.984010	1101.640394	-78.206707	191.731664	1050.971058	-365.872426	167.365019	1067.672873	-111.369232	29.789785	1168.844005	-227.528817	31.487314	1161.119168	-289.153431	100.446761	1015.747089	-55.523455	158.485103	1035.563492	-441.129079	189.693142	910.473930	-29.876318	257.259868	848.878375	-31.428187	282.780369	765.942657	-39.656169	285.927120	869.574044	-43.846978	321.468958	664.558845	-51.885045	321.608787	638.821830	-158.304522	294.456489	544.636389	-30.377680	302.216720	459.459413	-49.084974	267.473443	379.906768	-56.885621	326.701986	460.233912	-82.480390	245.186424	304.830186	-62.901603	281.825735	306.964501	-156.466069	182.371961	284.575675	-112.516656	449.631068	214.403465	-102.701986	348.245386	213.910328	-36.645371	226.415986	954.183273	-449.096154	308.619138	926.247516	-441.720969	327.507645	954.526019	-426.453212	367.602946	858.975308	-442.022339	410.804147	763.580287	-411.795445	407.673260	750.801338	-296.311164	108.844465	559.968740	-383.385495	45.079148	596.514442	-335.035901	122.471521	416.060430	-408.352234	334.732725	688.415999	-426.327221	276.660997	629.661291	-398.858345	194.953725	597.892592	-401.186300	292.693868	616.160764	-365.859201	178.201204	348.509137	-350.944656	-203.938221	867.684035	-221.680406	-50.198055	79.253614	-420.227908	-50.279216	79.418116	-22.854350	
1502	7.5100	529.893532	1232.050952	-61.238876	560.628912	1201.710007	-376.082133	550.841425	1311.705291	-220.735057	504.649405	1142.427064	-207.684796	474.862821	998.276329	64.250285	644.922603	920.673029	-70.676498	465.338321	988.080423	-523.578701	648.834922	918.255261	-432.055113	-1.043009	1125.091492	-253.728715	170.884602	1099.270653	-408.532357	127.242675	1102.254470	-77.250366	191.448310	1052.319050	-365.110566	168.434266	1068.274805	-110.702675	30.099129	1169.515546	-225.711875	31.377909	1161.651029	-287.154674	101.134296	1014.925309	-54.518219	158.129958	1038.798901	-439.975832	188.582268	907.371357	-27.955064	253.371362	843.612752	-30.909848	276.756743	759.947320	-40.208873	283.270737	863.670765	-43.139502	313.655524	658.360784	-51.582944	312.513496	632.824277	-158.470522	287.354605	539.178578	-29.895036	295.877886	453.819251	-48.735917	261.882768	374.165229	-56.514719	320.389630	455.097140	-81.896673	240.406761	298.457297	-63.018204	277.059052	300.312722	-156.057397	177.407487	280.000792	-112.269144	443.255227	204.238927	-103.103187	341.888739	205.717073	-36.526798	226.836746	958.250587	-447.998850	309.730892	932.255150	-441.245481	328.194863	961.236488	-426.654781	370.458868	866.642165	-440.185389	416.334738	772.659435	-410.643291	413.289827	760.025991	-294.727563	114.594483	568.346550	-382.799220	50.003550	604.328133	-334.755047	129.843159	424.986642	-408.672575	340.827699	697.323919	-425.177621	282.685862	638.384246	-397.804120	201.180113	606.395204	-400.151129	298.713938	624.912112	-364.970378	185.918783	357.717595	-350.902206	-204.050591	867.675430	-221.334892	-50.208990	79.296229	-420.211257	-50.268098	79.384935	-22.847525	
1503	7.5150	530.107030	1232.740041	-62.213364	559.996405	1202.334786	-377.486285	551.417083	1312.387995	-222.071070	503.966536	1143.486874	-209.017658	475.326822	999.394308	64.348844	645.483406	921.007023	-70.342435	465.313930	988.343767	-524.216380	648.997871	918.888710	-432.626136	-0.971095	1125.921573	-251.433689	169.718750	1100.409074	-408.150619	128.836975	1102.992242	-76.894693	190.857336	1053.780233	-364.357873	169.384878	1068.717481	-110.895127	30.218035	1170.470602	-223.505722	31.104705	1162.472906	-285.034819	102.181884	1014.489043	-53.431162	157.233883	1042.374842	-438.716080	186.856973	904.849934	-26.795258	249.748711	839.306470	-30.299827	271.352173	754.962163	-40.146027	280.145813	858.491080	-42.547081	305.815929	653.402767	-51.435875	303.686007	628.151561	-158.956496	280.298482	534.513895	-29.470514	289.353226	449.166320	-48.212322	255.795018	369.372010	-56.120573	313.954704	450.558131	-81.354619	235.384814	293.077938	-62.909812	272.279648	294.238172	-155.621992	172.401445	276.152514	-112.088325	436.486932	194.154639	-103.032090	335.152955	198.186326	-36.431238	226.670879	962.516628	-446.840213	310.195552	938.473989	-440.668933	328.204846	968.086081	-426.588618	372.474240	874.254308	-439.350409	421.534549	781.915623	-409.394790	418.566143	769.665301	-292.935788	120.329532	576.479984	-382.415680	54.860569	611.506952	-334.559113	137.209348	433.489787	-408.481202	346.615873	706.424300	-423.847290	288.629370	647.276568	-396.892374	207.214081	614.978201	-399.362660	304.784825	634.220786	-364.647694	194.217755	366.918049	-350.860697	-204.104226	867.688682	-221.167629	-50.210119	79.372477	-420.189667	-50.272085	79.403005	-22.822527	
1504	7.5200	530.607296	1233.661392	-63.524702	559.516198	1202.793390	-378.820230	552.106906	1313.036316	-223.538681	503.567251	1144.486643	-210.311816	475.924119	1000.730446	64.288862	646.127578	920.997712	-69.630188	465.333560	988.439702	-524.723477	648.923566	919.254208	-432.605719	-0.770107	1127.116983	-249.018003	168.551497	1101.817244	-407.759094	129.662789	1103.786918	-77.536440	190.043513	1055.683961	-363.946506	169.485763	1069.196909	-112.135389	30.472329	1171.538302	-221.178861	30.835151	1163.662433	-282.720210	103.407980	1014.409684	-52.464010	156.015701	1046.308143	-437.524222	184.505483	902.683105	-26.569057	246.571033	835.764396	-29.666569	265.684672	751.054990	-39.961739	277.031636	854.295706	-41.954935	298.596897	649.120129	-51.205997	295.119246	624.594093	-159.595309	273.373799	530.297426	-29.048677	282.824479	445.120516	-47.678410	249.524077	365.025217	-55.657024	307.388937	446.467002	-80.836765	230.273920	288.617247	-62.746085	265.918533	288.810367	-155.033816	167.278741	273.150839	-111.943032	429.299612	184.559206	-102.920031	328.095350	191.125689	-36.300057	226.005787	967.023267	-445.607876	310.184132	944.930022	-440.023412	327.648141	975.019740	-426.304448	373.849836	882.317976	-438.708053	426.392840	791.353396	-408.096425	423.425002	779.403339	-291.072799	126.022842	584.194394	-382.002989	59.562957	618.019157	-334.170667	145.084924	441.804370	-408.711761	352.104744	715.724804	-422.487343	294.360552	656.078273	-395.805858	213.033163	623.528025	-398.379897	310.427119	642.952836	-363.457627	203.753974	376.839841	-351.695677	-204.195411	867.736689	-221.016219	-50.228184	79.441443	-420.164612	-50.274457	79.452456	-22.800438	
1505	7.5250	531.357663	1234.627715	-64.917392	559.084433	1203.070953	-380.031839	552.912952	1313.689619	-225.033241	503.365586	1145.478745	-211.591196	476.863064	1002.164122	64.099818	647.018577	921.554248	-69.233622	465.332645	988.613604	-525.092341	648.919070	919.569297	-432.572318	-1.570189	1128.314372	-243.848395	167.195498	1103.489981	-407.511577	132.717401	1105.187896	-75.231620	188.845528	1058.143410	-363.393775	172.269743	1070.606556	-110.212864	31.038242	1172.895704	-218.750318	30.501010	1164.886450	-280.238536	104.753641	1014.754989	-51.498738	154.293964	1050.067209	-436.089829	182.378133	901.465481	-25.813684	242.805417	833.058416	-29.165538	259.438892	748.078718	-39.605416	273.483558	850.991587	-41.564368	290.984942	645.664274	-51.037795	286.845444	621.628024	-160.083089	266.475970	526.655430	-28.570380	276.113573	441.443080	-47.142396	243.039056	361.356143	-55.022317	300.782521	442.915486	-80.223158	224.977307	284.669140	-62.488752	262.405933	284.039931	-154.483701	162.020094	270.889694	-111.635139	421.721959	175.297764	-102.748646	320.745763	184.469876	-35.891949	224.846770	971.438345	-444.043248	309.683308	951.425642	-439.287926	326.401075	982.246889	-425.856475	374.854253	890.071272	-437.486619	430.894315	801.228253	-406.963508	428.091510	789.371092	-289.526444	131.703864	591.629057	-381.549454	64.225397	623.899249	-333.674577	153.366217	449.568170	-408.658682	356.887381	725.193471	-420.885658	300.033818	664.908491	-394.921924	218.715603	631.799255	-397.270484	316.190095	651.721317	-362.700241	213.336574	385.718760	-351.759215	-204.270561	867.765647	-220.778971	-50.243286	79.542133	-420.146322	-50.287111	79.461806	-22.775360	
1506	7.5300	532.161006	1235.685882	-66.576829	558.681428	1203.216550	-381.207218	553.780271	1314.309371	-226.575318	503.177404	1146.459096	-212.910844	477.960276	1003.716335	63.763376	648.013979	921.896662	-68.418719	465.324141	988.740962	-525.341324	648.866830	919.890339	-432.418300	-1.451730	1129.844616	-241.704591	165.759153	1105.305950	-407.358401	134.789676	1106.390126	-74.507830	187.452127	1060.762704	-363.328859	173.639015	1071.478077	-110.009270	31.485891	1174.304325	-216.302318	30.230576	1166.224801	-277.650509	106.015472	1015.396289	-50.474289	152.329920	1053.927528	-434.822311	180.052980	900.761816	-25.300731	239.004676	830.994266	-28.487174	253.800096	745.658754	-39.387640	270.081703	848.239243	-40.986974	283.485157	642.757300	-50.845660	278.938522	619.193013	-160.392869	259.525269	523.602573	-28.039871	269.379020	438.360168	-46.626867	236.561339	358.105280	-54.396977	294.098855	439.770063	-79.569976	219.595306	281.214063	-62.170940	255.812482	280.187456	-153.641407	156.754662	269.403451	-111.216334	413.664423	166.330868	-102.513441	312.885564	178.295262	-35.812535	223.413261	976.052756	-442.769302	308.782578	958.116710	-438.372077	324.790896	989.337941	-424.852270	375.331619	898.258621	-436.434607	435.090579	810.878636	-405.551649	432.444808	799.672837	-288.090392	137.473089	598.433625	-381.055694	68.858138	629.067642	-333.292399	161.844036	456.905633	-408.421235	361.744723	734.525141	-419.571194	305.346116	673.538850	-393.892993	224.265035	639.815414	-396.272750	321.609712	659.896150	-361.222952	225.587836	395.343731	-352.921856	-204.353261	867.799132	-220.583961	-50.253402	79.618739	-420.100926	-50.313516	79.467353	-22.719032	
